<mxfile host="65bd71144e">
    <diagram id="C4TS-19_Y4aZMsiS-sHj" name="Page-1">
        <mxGraphModel dx="1013" dy="593" grid="1" gridSize="10" guides="1" tooltips="1" connect="1" arrows="1" fold="1" page="1" pageScale="1" pageWidth="827" pageHeight="1169" math="0" shadow="0">
            <root>
                <mxCell id="0"/>
                <mxCell id="1" parent="0"/>
                <mxCell id="16" style="edgeStyle=none;html=1;exitX=0.5;exitY=0;exitDx=0;exitDy=0;entryX=0.5;entryY=1;entryDx=0;entryDy=0;strokeWidth=2;" parent="1" source="3" target="39" edge="1">
                    <mxGeometry relative="1" as="geometry"/>
                </mxCell>
                <mxCell id="2" value="Hackathon" style="whiteSpace=wrap;html=1;container=0;shadow=0;rounded=0;glass=0;direction=east;" parent="1" vertex="1">
                    <mxGeometry x="40" y="190" width="160" height="40" as="geometry"/>
                </mxCell>
                <mxCell id="3" value="Evenement" style="whiteSpace=wrap;html=1;" parent="1" vertex="1">
                    <mxGeometry x="40" y="510" width="160" height="40" as="geometry"/>
                </mxCell>
                <mxCell id="21" style="edgeStyle=none;html=1;exitX=0.5;exitY=1;exitDx=0;exitDy=0;entryX=0.5;entryY=0;entryDx=0;entryDy=0;strokeWidth=2;" parent="1" source="43" target="6" edge="1">
                    <mxGeometry relative="1" as="geometry"/>
                </mxCell>
                <mxCell id="4" value="ParticipantAtelier" style="whiteSpace=wrap;html=1;" parent="1" vertex="1">
                    <mxGeometry x="560" y="510" width="160" height="40" as="geometry"/>
                </mxCell>
                <mxCell id="12" value="" style="edgeStyle=none;html=1;strokeWidth=2;" parent="1" source="5" target="7" edge="1">
                    <mxGeometry relative="1" as="geometry"/>
                </mxCell>
                <mxCell id="13" value="" style="edgeStyle=none;html=1;strokeWidth=2;" parent="1" source="5" target="2" edge="1">
                    <mxGeometry relative="1" as="geometry"/>
                </mxCell>
                <mxCell id="5" value="Inscription" style="whiteSpace=wrap;html=1;" parent="1" vertex="1">
                    <mxGeometry x="300" y="190" width="160" height="40" as="geometry"/>
                </mxCell>
                <mxCell id="34" style="edgeStyle=none;html=1;exitX=0;exitY=0;exitDx=0;exitDy=0;entryX=1;entryY=1;entryDx=0;entryDy=0;strokeColor=default;endArrow=block;endFill=0;strokeWidth=2;endSize=6;sourcePerimeterSpacing=0;targetPerimeterSpacing=0;startSize=6;jumpSize=6;" parent="1" source="6" target="3" edge="1">
                    <mxGeometry relative="1" as="geometry"/>
                </mxCell>
                <mxCell id="6" value="Atelier" style="whiteSpace=wrap;html=1;" parent="1" vertex="1">
                    <mxGeometry x="560" y="710" width="160" height="40" as="geometry"/>
                </mxCell>
                <mxCell id="7" value="Participant" style="whiteSpace=wrap;html=1;" parent="1" vertex="1">
                    <mxGeometry x="560" y="190" width="160" height="40" as="geometry"/>
                </mxCell>
                <mxCell id="18" style="edgeStyle=none;html=1;exitX=1;exitY=0.5;exitDx=0;exitDy=0;entryX=0;entryY=0.5;entryDx=0;entryDy=0;strokeWidth=2;" parent="1" source="8" target="6" edge="1">
                    <mxGeometry relative="1" as="geometry"/>
                </mxCell>
                <mxCell id="8" value="CommentaireAtelier" style="whiteSpace=wrap;html=1;" parent="1" vertex="1">
                    <mxGeometry x="40" y="710" width="160" height="40" as="geometry"/>
                </mxCell>
                <mxCell id="19" style="edgeStyle=none;html=1;exitX=0.5;exitY=1;exitDx=0;exitDy=0;entryX=0.5;entryY=0;entryDx=0;entryDy=0;strokeWidth=2;" parent="1" source="10" target="2" edge="1">
                    <mxGeometry relative="1" as="geometry"/>
                </mxCell>
                <mxCell id="20" style="edgeStyle=none;html=1;exitX=1;exitY=0.5;exitDx=0;exitDy=0;entryX=0.5;entryY=0;entryDx=0;entryDy=0;strokeWidth=2;" parent="1" source="10" target="7" edge="1">
                    <mxGeometry relative="1" as="geometry"/>
                </mxCell>
                <mxCell id="10" value="Favoris" style="whiteSpace=wrap;html=1;" parent="1" vertex="1">
                    <mxGeometry x="40" y="40" width="160" height="40" as="geometry"/>
                </mxCell>
                <mxCell id="23" value="Participants" style="text;strokeColor=none;align=center;fillColor=none;html=1;verticalAlign=middle;whiteSpace=wrap;rounded=0;shadow=0;glass=0;sketch=0;" parent="1" vertex="1">
                    <mxGeometry x="600" y="130" width="60" height="40" as="geometry"/>
                </mxCell>
                <mxCell id="25" value="Hackathons" style="text;strokeColor=none;align=center;fillColor=none;html=1;verticalAlign=middle;whiteSpace=wrap;rounded=0;shadow=0;glass=0;sketch=0;" parent="1" vertex="1">
                    <mxGeometry x="140" y="160" width="60" height="40" as="geometry"/>
                </mxCell>
                <mxCell id="26" value="Hackathons" style="text;strokeColor=none;align=center;fillColor=none;html=1;verticalAlign=middle;whiteSpace=wrap;rounded=0;shadow=0;glass=0;sketch=0;" parent="1" vertex="1">
                    <mxGeometry x="210" y="210" width="60" height="40" as="geometry"/>
                </mxCell>
                <mxCell id="27" value="Participants" style="text;strokeColor=none;align=center;fillColor=none;html=1;verticalAlign=middle;whiteSpace=wrap;rounded=0;shadow=0;glass=0;sketch=0;" parent="1" vertex="1">
                    <mxGeometry x="490" y="210" width="60" height="40" as="geometry"/>
                </mxCell>
                <mxCell id="30" value="Ateliers" style="text;strokeColor=none;align=center;fillColor=none;html=1;verticalAlign=middle;whiteSpace=wrap;rounded=0;shadow=0;glass=0;sketch=0;" parent="1" vertex="1">
                    <mxGeometry x="500" y="730" width="60" height="40" as="geometry"/>
                </mxCell>
                <mxCell id="31" value="Ateliers" style="text;strokeColor=none;align=center;fillColor=none;html=1;verticalAlign=middle;whiteSpace=wrap;rounded=0;shadow=0;glass=0;sketch=0;" parent="1" vertex="1">
                    <mxGeometry x="650" y="680" width="60" height="40" as="geometry"/>
                </mxCell>
                <mxCell id="36" value="- IDFAVORIS&lt;br&gt;- PARTICIPANTS&lt;br&gt;- HACKATHONS" style="rounded=0;whiteSpace=wrap;html=1;glass=0;strokeColor=default;align=left;verticalAlign=top;" vertex="1" parent="1">
                    <mxGeometry x="40" y="80" width="160" height="60" as="geometry"/>
                </mxCell>
                <mxCell id="37" value="- ID&lt;br&gt;- ROLES&lt;br&gt;- NOM&lt;br&gt;- PRENOM&lt;br&gt;- DATENAISSANCE&lt;br&gt;- VILLE&lt;br&gt;- RUE&lt;br&gt;- CP&lt;br&gt;- EMAIL&lt;br&gt;- LOGIN&lt;br&gt;- MDP&lt;br&gt;- PORTFOLIO" style="rounded=0;whiteSpace=wrap;html=1;glass=0;strokeColor=default;align=left;verticalAlign=top;" vertex="1" parent="1">
                    <mxGeometry x="560" y="230" width="160" height="190" as="geometry"/>
                </mxCell>
                <mxCell id="38" value="- ID&lt;br&gt;- PARTICIPANTS&lt;br&gt;- HACKATHONS&lt;br&gt;- DATEINSCRIPTION&lt;br&gt;- DESCRIPTION" style="rounded=0;whiteSpace=wrap;html=1;glass=0;strokeColor=default;align=left;verticalAlign=top;" vertex="1" parent="1">
                    <mxGeometry x="300" y="230" width="160" height="80" as="geometry"/>
                </mxCell>
                <mxCell id="39" value="- ID&lt;br&gt;- DATEDEBUT&lt;br&gt;- DATEFIN&lt;br&gt;- HEUREDEBUT&lt;br&gt;- HEUREFIN&lt;br&gt;- LIEU&lt;br&gt;- RUE&lt;br&gt;- VILLE&lt;br&gt;- CP&lt;br&gt;- THEME&lt;br&gt;- DESCRIPTION&lt;br&gt;- IMAGE&lt;br&gt;- DATELIMITE&lt;br&gt;- NBPLACES&lt;br&gt;- NBPLACESRESTANTES" style="rounded=0;whiteSpace=wrap;html=1;glass=0;strokeColor=default;align=left;verticalAlign=top;" vertex="1" parent="1">
                    <mxGeometry x="40" y="230" width="160" height="230" as="geometry"/>
                </mxCell>
                <mxCell id="42" value="- ID&lt;br&gt;- HACKATHONS&lt;br&gt;- NOMEVENEMENT&lt;br&gt;- DATEDEBUT&lt;br&gt;- DATEFIN&lt;br&gt;- DUREE" style="rounded=0;whiteSpace=wrap;html=1;glass=0;strokeColor=default;align=left;verticalAlign=top;" vertex="1" parent="1">
                    <mxGeometry x="40" y="550" width="160" height="101" as="geometry"/>
                </mxCell>
                <mxCell id="43" value="- ID&lt;br&gt;- NOM&lt;br&gt;- PRENOM&lt;br&gt;- EMAIL&lt;br&gt;- ATELIERS" style="rounded=0;whiteSpace=wrap;html=1;glass=0;strokeColor=default;align=left;verticalAlign=top;" vertex="1" parent="1">
                    <mxGeometry x="560" y="550" width="160" height="91" as="geometry"/>
                </mxCell>
                <mxCell id="44" value="- ID&lt;br&gt;- EMAIL&lt;br&gt;- COMMENTAIRE&lt;br&gt;- ATELIERS" style="rounded=0;whiteSpace=wrap;html=1;glass=0;strokeColor=default;align=left;verticalAlign=top;" vertex="1" parent="1">
                    <mxGeometry x="40" y="750" width="160" height="71" as="geometry"/>
                </mxCell>
                <mxCell id="45" value="- NBPARTICIPANTS&lt;br&gt;- NBPLACESRESTANTES" style="rounded=0;whiteSpace=wrap;html=1;glass=0;strokeColor=default;align=left;verticalAlign=top;" vertex="1" parent="1">
                    <mxGeometry x="560" y="750" width="160" height="41" as="geometry"/>
                </mxCell>
                <mxCell id="46" value="1" style="text;strokeColor=none;align=center;fillColor=none;html=1;verticalAlign=middle;whiteSpace=wrap;rounded=0;shadow=0;glass=0;sketch=0;" vertex="1" parent="1">
                    <mxGeometry x="620" y="160" width="20" height="20" as="geometry"/>
                </mxCell>
                <mxCell id="49" value="1" style="text;strokeColor=none;align=center;fillColor=none;html=1;verticalAlign=middle;whiteSpace=wrap;rounded=0;shadow=0;glass=0;sketch=0;" vertex="1" parent="1">
                    <mxGeometry x="80" y="170" width="20" height="20" as="geometry"/>
                </mxCell>
                <mxCell id="50" value="1" style="text;strokeColor=none;align=center;fillColor=none;html=1;verticalAlign=middle;whiteSpace=wrap;rounded=0;shadow=0;glass=0;sketch=0;" vertex="1" parent="1">
                    <mxGeometry x="210" y="240" width="20" height="20" as="geometry"/>
                </mxCell>
                <mxCell id="51" value="1" style="text;strokeColor=none;align=center;fillColor=none;html=1;verticalAlign=middle;whiteSpace=wrap;rounded=0;shadow=0;glass=0;sketch=0;" vertex="1" parent="1">
                    <mxGeometry x="530" y="240" width="20" height="20" as="geometry"/>
                </mxCell>
                <mxCell id="52" value="1" style="text;strokeColor=none;align=center;fillColor=none;html=1;verticalAlign=middle;whiteSpace=wrap;rounded=0;shadow=0;glass=0;sketch=0;" vertex="1" parent="1">
                    <mxGeometry x="80" y="470" width="20" height="20" as="geometry"/>
                </mxCell>
                <mxCell id="54" value="1" style="text;strokeColor=none;align=center;fillColor=none;html=1;verticalAlign=middle;whiteSpace=wrap;rounded=0;shadow=0;glass=0;sketch=0;" vertex="1" parent="1">
                    <mxGeometry x="530" y="760" width="20" height="20" as="geometry"/>
                </mxCell>
                <mxCell id="55" value="1" style="text;strokeColor=none;align=center;fillColor=none;html=1;verticalAlign=middle;whiteSpace=wrap;rounded=0;shadow=0;glass=0;sketch=0;" vertex="1" parent="1">
                    <mxGeometry x="600" y="690" width="20" height="20" as="geometry"/>
                </mxCell>
                <mxCell id="56" value="Hackathons" style="text;strokeColor=none;align=center;fillColor=none;html=1;verticalAlign=middle;whiteSpace=wrap;rounded=0;shadow=0;glass=0;sketch=0;" vertex="1" parent="1">
                    <mxGeometry x="140" y="460" width="60" height="40" as="geometry"/>
                </mxCell>
            </root>
        </mxGraphModel>
    </diagram>
</mxfile>